<?xml version="1.0" encoding="utf-8"?>
<!-- Generator: Adobe Illustrator 16.0.0, SVG Export Plug-In . SVG Version: 6.00 Build 0)  -->
<!DOCTYPE svg PUBLIC "-//W3C//DTD SVG 1.1//EN" "http://www.w3.org/Graphics/SVG/1.1/DTD/svg11.dtd">
<svg version="1.1" id="Layer_1" xmlns="http://www.w3.org/2000/svg" xmlns:xlink="http://www.w3.org/1999/xlink" x="0px" y="0px"
	 width="227.583px" height="39px" viewBox="0 0 227.583 39" enable-background="new 0 0 227.583 39" xml:space="preserve">
<g>
	<g>
		<path fill="#1DA3D1" d="M36.674,18.758c0-5.048,3.817-8.497,8.743-8.497c3.62,0,5.714,1.97,6.871,4.015l-3.004,1.478
			c-0.689-1.33-2.167-2.389-3.867-2.389c-2.98,0-5.147,2.291-5.147,5.394c0,3.104,2.167,5.395,5.147,5.395
			c1.699,0,3.177-1.035,3.867-2.389l3.004,1.453c-1.182,2.043-3.251,4.037-6.871,4.037C40.491,27.254,36.674,23.807,36.674,18.758z"
			/>
		<path fill="#1DA3D1" d="M54.311,26.959V15.064h3.127v1.625c0.837-1.059,2.315-1.921,3.793-1.921v3.054
			c-0.222-0.049-0.518-0.074-0.862-0.074c-1.034,0-2.414,0.591-2.931,1.354v7.856H54.311z"/>
		<path fill="#1DA3D1" d="M62.414,20.999c0-3.448,2.537-6.231,6.157-6.231c3.546,0,5.96,2.66,5.96,6.552v0.689h-8.841
			c0.197,1.502,1.404,2.758,3.423,2.758c1.01,0,2.414-0.443,3.177-1.182l1.379,2.02c-1.182,1.082-3.054,1.648-4.901,1.648
			C65.148,27.254,62.414,24.816,62.414,20.999z M68.571,17.256c-1.945,0-2.783,1.453-2.931,2.635h5.861
			C71.428,18.758,70.64,17.256,68.571,17.256z"/>
		<path fill="#1DA3D1" d="M84.976,26.959v-1.527c-0.936,1.184-2.241,1.822-3.669,1.822c-3.005,0-5.271-2.266-5.271-6.23
			c0-3.891,2.241-6.255,5.271-6.255c1.404,0,2.733,0.616,3.669,1.823v-6.059h3.152v16.427H84.976z M84.976,23.117v-4.211
			c-0.517-0.788-1.65-1.354-2.709-1.354c-1.773,0-3.005,1.404-3.005,3.472c0,2.045,1.231,3.449,3.005,3.449
			C83.326,24.473,84.458,23.906,84.976,23.117z"/>
		<path fill="#1DA3D1" d="M90.914,11.912c0-1.035,0.862-1.847,1.872-1.847c1.035,0,1.872,0.813,1.872,1.847
			c0,1.034-0.837,1.872-1.872,1.872C91.775,13.783,90.914,12.946,90.914,11.912z M91.234,26.959V15.064h3.127v11.895H91.234z"/>
		<path fill="#1DA3D1" d="M98.082,24.004v-6.207h-1.971v-2.733h1.971v-3.251h3.152v3.251h2.413v2.733h-2.413v5.369
			c0,0.74,0.394,1.307,1.083,1.307c0.468,0,0.911-0.174,1.083-0.346l0.665,2.365c-0.468,0.418-1.305,0.762-2.611,0.762
			C99.263,27.254,98.082,26.121,98.082,24.004z"/>
		<path fill="#1DA3D1" d="M105.077,18.758c0-5.048,3.817-8.497,8.743-8.497c3.62,0,5.714,1.97,6.871,4.015l-3.004,1.478
			c-0.689-1.33-2.167-2.389-3.867-2.389c-2.98,0-5.147,2.291-5.147,5.394c0,3.104,2.167,5.395,5.147,5.395
			c1.699,0,3.177-1.035,3.867-2.389l3.004,1.453c-1.182,2.043-3.25,4.037-6.871,4.037C108.895,27.254,105.077,23.807,105.077,18.758
			z"/>
		<path fill="#1DA3D1" d="M129.854,26.959v-1.23c-0.813,0.959-2.216,1.525-3.768,1.525c-1.896,0-4.137-1.279-4.137-3.939
			c0-2.783,2.24-3.842,4.137-3.842c1.576,0,2.98,0.517,3.768,1.453v-1.601c0-1.207-1.033-1.995-2.609-1.995
			c-1.281,0-2.463,0.468-3.473,1.404l-1.183-2.093c1.453-1.281,3.325-1.872,5.196-1.872c2.709,0,5.197,1.084,5.197,4.507v7.684
			H129.854z M129.854,24.102v-1.477c-0.517-0.689-1.502-1.035-2.512-1.035c-1.23,0-2.24,0.641-2.24,1.799
			c0,1.107,1.01,1.748,2.24,1.748C128.352,25.137,129.337,24.793,129.854,24.102z"/>
		<path fill="#1DA3D1" d="M136.088,26.959V15.064h3.127v1.625c0.838-1.059,2.315-1.921,3.793-1.921v3.054
			c-0.221-0.049-0.518-0.074-0.861-0.074c-1.035,0-2.414,0.591-2.932,1.354v7.856H136.088z"/>
		<path fill="#1DA3D1" d="M153.131,26.959v-1.527c-0.936,1.184-2.24,1.822-3.669,1.822c-3.005,0-5.271-2.266-5.271-6.23
			c0-3.891,2.241-6.255,5.271-6.255c1.403,0,2.733,0.616,3.669,1.823v-6.059h3.152v16.427H153.131z M153.131,23.117v-4.211
			c-0.517-0.788-1.65-1.354-2.709-1.354c-1.773,0-3.004,1.404-3.004,3.472c0,2.045,1.23,3.449,3.004,3.449
			C151.481,24.473,152.615,23.906,153.131,23.117z"/>
		<path fill="#1DA3D1" d="M158.356,25.408l1.354-2.191c0.863,0.813,2.636,1.625,4.113,1.625c1.354,0,1.995-0.543,1.995-1.281
			c0-1.971-7.068-0.369-7.068-5.049c0-1.995,1.749-3.744,4.876-3.744c2.02,0,3.621,0.69,4.803,1.625l-1.256,2.143
			c-0.715-0.763-2.068-1.379-3.521-1.379c-1.133,0-1.872,0.517-1.872,1.182c0,1.773,7.044,0.295,7.044,5.098
			c0,2.168-1.848,3.816-5.147,3.816C161.606,27.254,159.612,26.564,158.356,25.408z"/>
		<path fill="#1DA3D1" d="M171.213,26.959V10.532h3.497v16.427H171.213z"/>
		<path fill="#1DA3D1" d="M185.917,26.959v-7.191c0-1.65-0.861-2.216-2.191-2.216c-1.231,0-2.191,0.689-2.709,1.404v8.004h-3.127
			V15.064h3.127v1.551c0.764-0.911,2.217-1.847,4.162-1.847c2.61,0,3.867,1.478,3.867,3.793v8.398H185.917z"/>
		<path fill="#1DA3D1" d="M200.327,26.959v-1.527c-0.936,1.184-2.241,1.822-3.67,1.822c-3.004,0-5.27-2.266-5.27-6.23
			c0-3.891,2.24-6.255,5.27-6.255c1.404,0,2.734,0.616,3.67,1.823v-6.059h3.152v16.427H200.327z M200.327,23.117v-4.211
			c-0.518-0.788-1.65-1.354-2.709-1.354c-1.773,0-3.005,1.404-3.005,3.472c0,2.045,1.231,3.449,3.005,3.449
			C198.676,24.473,199.809,23.906,200.327,23.117z"/>
		<path fill="#1DA3D1" d="M206.264,11.912c0-1.035,0.862-1.847,1.872-1.847c1.034,0,1.872,0.813,1.872,1.847
			c0,1.034-0.838,1.872-1.872,1.872C207.126,13.783,206.264,12.946,206.264,11.912z M206.584,26.959V15.064h3.128v11.895H206.584z"
			/>
		<path fill="#1DA3D1" d="M219.958,26.959v-1.23c-0.813,0.959-2.216,1.525-3.769,1.525c-1.896,0-4.137-1.279-4.137-3.939
			c0-2.783,2.241-3.842,4.137-3.842c1.576,0,2.98,0.517,3.769,1.453v-1.601c0-1.207-1.034-1.995-2.61-1.995
			c-1.281,0-2.463,0.468-3.473,1.404l-1.182-2.093c1.453-1.281,3.324-1.872,5.196-1.872c2.709,0,5.196,1.084,5.196,4.507v7.684
			H219.958z M219.958,24.102v-1.477c-0.517-0.689-1.502-1.035-2.512-1.035c-1.231,0-2.241,0.641-2.241,1.799
			c0,1.107,1.01,1.748,2.241,1.748C218.457,25.137,219.442,24.793,219.958,24.102z"/>
	</g>
	<path fill="#1DA3D1" d="M32.106,10.824c-0.349-0.601-0.91-1.031-1.582-1.21L23.1,7.632l-0.423-2.416
		c-0.27-1.542-1.745-2.578-3.287-2.308L6.849,5.102C6.102,5.233,5.45,5.647,5.014,6.268C4.578,6.89,4.409,7.643,4.54,8.39
		l3.736,21.35c0.097,0.557,0.355,1.064,0.739,1.467c0.034,0.076,0.073,0.15,0.115,0.223c0.348,0.602,0.91,1.031,1.581,1.211
		l12.761,3.406c0.224,0.059,0.449,0.088,0.67,0.088c1.15,0,2.205-0.77,2.515-1.932l5.711-21.405
		C32.547,12.126,32.455,11.425,32.106,10.824L32.106,10.824z M22.471,8.892l-6.342,23.766l-3.166-0.846l6.342-23.764L22.471,8.892z
		 M19.627,4.267c0.793-0.139,1.552,0.395,1.69,1.188l0.312,1.785l-3.866-1.031c-0.671-0.18-1.373-0.086-1.975,0.262
		c-0.601,0.349-1.032,0.91-1.211,1.582l-0.443,1.663l-0.762-4.354L19.627,4.267z M11.28,20.416L8.786,6.165L12.014,5.6l1.275,7.286
		L11.28,20.416z M5.9,8.152C5.833,7.768,5.919,7.38,6.144,7.061c0.224-0.319,0.559-0.532,0.943-0.6l0.34-0.06l3.007,17.184
		l-1.107,4.15L5.9,8.152z M10.2,29.811l5.711-21.403c0.084-0.315,0.286-0.579,0.569-0.743c0.189-0.108,0.398-0.165,0.61-0.165
		c0.105,0,0.212,0.015,0.317,0.043l0.563,0.149L11.63,31.459l-0.563-0.152C10.416,31.133,10.027,30.463,10.2,29.811L10.2,29.811z
		 M31.035,12.443l-5.711,21.405c-0.084,0.314-0.286,0.578-0.569,0.742c-0.283,0.164-0.611,0.207-0.927,0.123l-6.365-1.699
		l6.341-23.765l6.365,1.698c0.315,0.084,0.579,0.286,0.743,0.568C31.075,11.798,31.119,12.127,31.035,12.443L31.035,12.443z
		 M31.035,12.443"/>
</g>
</svg>
